<?xml version="1.0" standalone="no"?>
<!DOCTYPE svg PUBLIC "-//W3C//DTD SVG 20010904//EN"
 "http://www.w3.org/TR/2001/REC-SVG-20010904/DTD/svg10.dtd">
<svg version="1.0" xmlns="http://www.w3.org/2000/svg"
 width="140.000000pt" height="140.000000pt" viewBox="0 0 140.000000 140.000000"
 preserveAspectRatio="xMidYMid meet">
<metadata>
Created by potrace 1.15, written by Peter Selinger 2001-2017
</metadata>
<g transform="translate(0.000000,140.000000) scale(0.100000,-0.100000)"
fill="#000000" stroke="none">
<path d="M578 1390 c-244 -44 -442 -205 -530 -430 -42 -104 -51 -166 -46 -291
6 -124 35 -233 85 -313 108 -172 225 -263 418 -327 100 -34 278 -34 385 -1
259 80 438 281 495 555 17 81 19 169 6 213 -5 16 -14 54 -21 84 -21 91 -88
216 -157 290 -94 101 -190 159 -344 209 -47 15 -232 22 -291 11z m548 -422
c55 -29 60 -36 40 -63 -14 -20 -15 -20 -61 5 -66 36 -156 35 -212 -2 -58 -38
-86 -101 -86 -192 1 -121 45 -192 135 -216 58 -16 110 -4 157 36 35 30 41 41
41 74 l0 39 -77 3 c-77 3 -78 3 -81 31 l-3 27 110 0 111 0 0 -135 0 -135 -25
0 c-18 0 -26 7 -31 25 -7 28 -16 31 -34 11 -22 -28 -97 -49 -149 -43 -133 16
-220 112 -229 253 -10 151 59 263 188 305 47 16 155 4 206 -23z m-846 -98 l0
-120 140 0 139 0 3 118 3 117 35 0 35 0 3 -250 c1 -137 0 -260 -3 -273 -5 -19
-11 -23 -38 -20 l-32 3 -3 128 -3 127 -139 0 -139 0 -3 -127 -3 -128 -30 0
-30 0 -3 273 -2 272 35 0 35 0 0 -120z"/>
</g>
</svg>
